<svg id="Layer_1" data-name="Layer 1" xmlns="http://www.w3.org/2000/svg" viewBox="0 0 957.54 957.54"><defs><style>.cls-1{fill:#f0d233;}.cls-2{fill:#fff;}</style></defs><circle class="cls-1" cx="478.77" cy="478.77" r="478.77"/><path class="cls-2" d="M77.55,484.62V323.4H109V456.54h73.14v28.08Z"/><path class="cls-2" d="M202.76,346.5v-24h30.12v24Zm.45,138.12v-118h29.44v118Z"/><path class="cls-2" d="M554.39,486.31v-24h30.12v24Zm.46,138.12v-118h29.43v118Z"/><path class="cls-2" d="M296.27,392.46v92.16H266.84V392.46H254.61V370.05h12.23V355.33c0-16.76,10.41-33.74,34.42-33.74H318V346.5H306.46c-7,0-10.19,3.85-10.19,10.64v12.91H318v22.41Z"/><path class="cls-2" d="M359,434.8c0,15.17,9.28,26.27,25.81,26.27,12.91,0,19.25-3.62,26.72-11.1l17.89,17.44c-12,12-23.55,18.56-44.84,18.56C356.7,486,330,473.29,330,425.52c0-38.49,20.83-60.23,51.39-60.23,32.84,0,51.4,24,51.4,56.38V434.8ZM401.08,402c-3.17-7-9.73-12.23-19.7-12.23S364.85,395,361.68,402A32.41,32.41,0,0,0,359,414.65H403.8A32.59,32.59,0,0,0,401.08,402Z"/><path class="cls-2" d="M206.07,624.41V554.86c0-15.67-9.94-21-19-21s-19.21,5.3-19.21,21v69.55h-28.7v-115h28V520a39.35,39.35,0,0,1,28.7-11.92c11.48,0,20.76,3.75,27.16,10.15,9.27,9.27,11.7,20.09,11.7,32.68v73.52Z"/><path class="cls-2" d="M300.53,624.41c-23.41,0-33.34-16.56-33.34-32.9v-57H255.05V512.69h11.79V484.62h29.43v28.07H316.2v21.86H295.89v55.19c0,6.63,3.09,10.38,9.94,10.38H316.2v24.29Z"/><path class="cls-2" d="M365.19,574.7c0,14.8,9.05,25.61,25.17,25.61,12.58,0,18.76-3.53,26.05-10.81l17.44,17c-11.7,11.7-23,18.1-43.71,18.1-27.16,0-53.21-12.37-53.21-59,0-37.53,20.31-58.72,50.11-58.72,32,0,50.12,23.4,50.12,55v12.8Zm41.06-32c-3.09-6.84-9.49-11.92-19.21-11.92s-16.11,5.08-19.2,11.92a31.66,31.66,0,0,0-2.65,12.36H408.9A31.66,31.66,0,0,0,406.25,542.69Z"/><path class="cls-2" d="M520.53,540.73c-4.42-4.41-8.17-6.84-15.23-6.84-8.83,0-18.55,6.62-18.55,21.19v69.33h-28.7v-115h28v11c5.52-6.62,16.56-12.36,28.92-12.36,11.26,0,19.21,2.87,27.16,10.81Z"/><path class="cls-2" d="M78,624.41V508.06h28.7V624.41Z"/><path class="cls-2" d="M689.63,610.47c-7.06,7.51-18.77,14.13-35.77,14.13s-28.48-6.62-35.54-14.13c-10.38-10.82-13-23.85-13-44.82,0-20.75,2.65-33.78,13-44.6,7.06-7.5,18.54-14.12,35.54-14.12s28.71,6.62,35.77,14.12c10.38,10.82,13,23.85,13,44.6C702.65,586.62,700,599.65,689.63,610.47Zm-22.3-72.64c-3.31-3.31-7.73-5.08-13.47-5.08s-9.93,1.77-13.24,5.08c-6,6-6.63,15.9-6.63,27.82s.66,22.08,6.63,28c3.31,3.31,7.5,5.08,13.24,5.08S664,597,667.33,593.69c6-6,6.62-16.12,6.62-28S673.29,543.79,667.33,537.83Z"/><path class="cls-2" d="M786.85,540.73c-4.42-4.41-8.17-6.84-15.24-6.84-8.83,0-18.54,6.62-18.54,21.19v69.33h-28.7v-115h28v11c5.52-6.62,16.56-12.36,28.93-12.36,11.26,0,19.2,2.87,27.15,10.81Z"/><path class="cls-2" d="M861.49,624.88c-18.11,0-34.44-2-49-16.56l18.77-18.77c9.49,9.5,21.86,10.82,30.69,10.82,9.93,0,20.31-3.31,20.31-11.92,0-5.74-3.09-9.71-12.14-10.6L852,576.09c-20.75-2-33.56-11-33.56-32.24,0-23.84,21-36.64,44.38-36.64,17.88,0,32.9,3.09,43.94,13.46l-17.67,17.89c-6.62-6-16.78-7.73-26.71-7.73-11.48,0-16.34,5.3-16.34,11,0,4.19,1.77,9,11.92,9.93l18.11,1.77c22.74,2.21,34.22,14.35,34.22,33.78C910.28,612.74,888.64,624.88,861.49,624.88Z"/></svg>