<svg xmlns="http://www.w3.org/2000/svg" viewBox="0 0 957.54 957.54"><defs><style>.cls-1{fill:#f0d233;}.cls-2{fill:#fff;}.cls-3{font-size:156.46px;letter-spacing:-0.05em;}.cls-3,.cls-4,.cls-5{fill:#3d4fd3;font-family:SinhalaMN, Sinhala MN;}.cls-4{font-size:101.7px;letter-spacing:-0.05em;}.cls-5{font-size:117.35px;letter-spacing:-0.05em;}</style></defs><g id="Layer_2" data-name="Layer 2"><g id="Layer_1-2" data-name="Layer 1"><circle class="cls-1" cx="478.77" cy="478.77" r="478.77"/><path class="cls-2" d="M101,650.18V308.34h66.68v282.3H322.74v59.54Z"/><path class="cls-2" d="M366.46,357.32V306.43h63.86v50.89Zm1,292.86V400h62.42v250.2Z"/><path class="cls-2" d="M564.73,454.77V650.18h-62.4V454.77H476.4V407.25h25.93V376c0-35.54,22.07-71.54,73-71.54H610.8v52.82H586.33c-14.84,0-21.6,8.16-21.6,22.56v27.37H610.8v47.52Z"/><path class="cls-2" d="M697.74,544.54c0,32.17,19.67,55.7,54.72,55.7,27.37,0,40.82-7.67,56.66-23.53l37.93,37C821.6,639.13,797.12,653,752,653c-59.11.06-115.72-26.89-115.72-128.17,0-81.62,44.16-127.71,109-127.71,69.63,0,109,50.89,109,119.54v27.84ZM787,475c-6.72-14.85-20.63-25.94-41.77-25.94S710.14,460.15,703.42,475a68.56,68.56,0,0,0-5.68,26.82h95A69.16,69.16,0,0,0,787,475Z"/><text class="cls-3" transform="translate(243.31 568.05)">15</text><text class="cls-4" transform="translate(133.29 316.97)">THIS</text><text class="cls-4" transform="translate(409.81 378.71)">IS </text><text class="cls-5" transform="translate(471.59 675.98)">YEARS</text></g></g></svg>