<svg xmlns="http://www.w3.org/2000/svg" xmlns:xlink="http://www.w3.org/1999/xlink" width="500" zoomAndPan="magnify" viewBox="0 0 375 374.999991" height="500" preserveAspectRatio="xMidYMid meet" version="1.0"><defs><g/><clipPath id="id1"><path d="M 65.652344 167.34375 L 309.402344 167.34375 L 309.402344 207.84375 L 65.652344 207.84375 Z M 65.652344 167.34375 " clip-rule="nonzero"/></clipPath></defs><rect x="-37.5" width="450" fill="#ffffff" y="-37.499999" height="449.999989" fill-opacity="1"/><rect x="-37.5" width="450" fill="#000000" y="-37.499999" height="449.999989" fill-opacity="1"/><rect x="-37.5" width="450" fill="#ffffff" y="-37.499999" height="449.999989" fill-opacity="1"/><rect x="-37.5" width="450" fill="#000000" y="-37.499999" height="449.999989" fill-opacity="1"/><g fill="#ffffff" fill-opacity="1"><g transform="translate(90.777887, 163.36457)"><g><path d="M 109.347656 -34.179688 C 110.628906 -35.457031 110.679688 -36.679688 109.828125 -37.53125 L 79.324219 -68.039062 C 78.207031 -69.15625 76.714844 -69.046875 75.4375 -67.769531 L 5.855469 1.808594 C 4.578125 3.085938 4.417969 4.417969 5.644531 5.644531 L 16.289062 16.289062 C 17.515625 17.515625 18.738281 17.25 20.015625 15.972656 L 47.808594 -11.820312 L 61.808594 2.183594 C 62.765625 3.140625 64.042969 3.140625 65.269531 1.917969 L 74.320312 -7.132812 C 75.703125 -8.519531 75.4375 -9.742188 74.585938 -10.59375 L 60.585938 -24.59375 L 78.738281 -42.75 L 96.890625 -24.59375 C 97.742188 -23.742188 98.96875 -23.796875 100.300781 -25.128906 Z M 109.347656 -34.179688 "/></g></g></g><g fill="#ffffff" fill-opacity="1"><g transform="translate(134.560109, 207.146791)"><g/></g></g><g fill="#ffffff" fill-opacity="1"><g transform="translate(164.713629, 237.300311)"><g><path d="M 47.222656 9.421875 C 44.347656 12.296875 39.128906 13.46875 35.347656 9.6875 L 29.8125 4.152344 L 49.03125 -15.066406 L 54.300781 -9.796875 C 57.496094 -6.601562 58.242188 -1.597656 53.714844 2.929688 Z M 77.035156 -21.347656 C 72.457031 -16.769531 67.503906 -19.484375 65.164062 -21.828125 L 60.476562 -26.511719 L 77.726562 -43.761719 L 82.570312 -38.917969 C 86.03125 -35.457031 86.671875 -30.984375 82.25 -26.566406 Z M 96.519531 -13.894531 C 107.113281 -24.488281 107.378906 -39.980469 96.253906 -51.109375 L 79.324219 -68.039062 C 78.152344 -69.207031 76.714844 -69.046875 75.4375 -67.769531 L 5.855469 1.808594 C 4.578125 3.085938 4.417969 4.417969 5.644531 5.644531 L 24.222656 24.222656 C 33.699219 33.699219 49.671875 35.402344 60.050781 25.023438 L 66.652344 18.421875 C 75.863281 9.210938 73.945312 -1.011719 71.765625 -4.792969 C 75.917969 -2.128906 85.285156 -2.660156 91.25 -8.625 Z M 96.519531 -13.894531 "/></g></g></g><g clip-path="url(#id1)"><path fill="#000000" d="M 65.65625 167.34375 L 309.398438 167.34375 L 309.398438 207.84375 L 65.65625 207.84375 L 65.65625 167.34375 " fill-opacity="1" fill-rule="nonzero"/></g><g fill="#ffffff" fill-opacity="1"><g transform="translate(118.397335, 181.56818)"><g><path d="M 6.164062 -11.769531 C 6.164062 -11.980469 6.070312 -12.085938 5.929688 -12.085938 L 0.925781 -12.085938 C 0.742188 -12.085938 0.628906 -11.953125 0.628906 -11.742188 L 0.628906 -0.332031 C 0.628906 -0.121094 0.726562 0 0.925781 0 L 2.671875 0 C 2.871094 0 2.953125 -0.121094 2.953125 -0.332031 L 2.953125 -4.890625 L 5.246094 -4.890625 C 5.40625 -4.890625 5.507812 -4.996094 5.507812 -5.195312 L 5.507812 -6.679688 C 5.507812 -6.90625 5.386719 -6.984375 5.246094 -6.984375 L 2.953125 -6.984375 L 2.953125 -9.960938 L 5.929688 -9.960938 C 6.070312 -9.960938 6.164062 -10.066406 6.164062 -10.285156 Z M 6.164062 -11.769531 "/></g></g></g><g fill="#ffffff" fill-opacity="1"><g transform="translate(133.895249, 181.56818)"><g><path d="M 4.742188 -2.96875 C 4.742188 -2.417969 4.402344 -1.914062 3.816406 -1.914062 C 3.222656 -1.914062 2.882812 -2.417969 2.882812 -2.96875 L 2.882812 -11.742188 C 2.882812 -11.925781 2.828125 -12.085938 2.621094 -12.085938 L 0.777344 -12.085938 C 0.65625 -12.085938 0.550781 -11.925781 0.550781 -11.742188 L 0.550781 -2.835938 C 0.550781 -1.160156 2.0625 0.191406 3.808594 0.191406 C 5.554688 0.191406 7.074219 -1.160156 7.074219 -2.835938 L 7.074219 -11.734375 C 7.074219 -11.910156 6.984375 -12.085938 6.792969 -12.085938 L 5.019531 -12.085938 C 4.835938 -12.085938 4.742188 -11.917969 4.742188 -11.734375 Z M 4.742188 -2.96875 "/></g></g></g><g fill="#ffffff" fill-opacity="1"><g transform="translate(150.728887, 181.56818)"><g><path d="M 4.828125 -7.484375 C 4.828125 -6.890625 4.460938 -6.496094 3.761719 -6.496094 L 2.953125 -6.496094 L 2.953125 -9.960938 L 3.824219 -9.960938 C 4.425781 -9.960938 4.828125 -9.5625 4.828125 -8.933594 Z M 6.765625 -0.0078125 C 7.003906 -0.0078125 7.082031 -0.21875 7.082031 -0.375 L 7.082031 -1.945312 C 7.082031 -3.695312 6.695312 -4.792969 5.910156 -5.457031 C 6.617188 -5.929688 7.160156 -6.644531 7.160156 -7.683594 L 7.160156 -8.933594 C 7.160156 -10.671875 5.804688 -12.085938 4.007812 -12.085938 L 0.925781 -12.085938 C 0.742188 -12.085938 0.628906 -11.953125 0.628906 -11.742188 L 0.628906 -0.324219 C 0.628906 -0.121094 0.714844 0 0.917969 0 L 2.664062 0 C 2.855469 0 2.953125 -0.121094 2.953125 -0.324219 L 2.953125 -4.699219 C 4.148438 -4.617188 4.757812 -3.910156 4.757812 -2.226562 L 4.757812 -0.402344 C 4.757812 -0.140625 4.960938 -0.0078125 5.160156 -0.0078125 Z M 6.765625 -0.0078125 "/></g></g></g><g fill="#ffffff" fill-opacity="1"><g transform="translate(167.571255, 181.56818)"><g><path d="M 6.792969 0 C 6.984375 0 7.074219 -0.175781 7.074219 -0.347656 L 7.074219 -9.246094 C 7.074219 -10.921875 5.554688 -12.277344 3.808594 -12.277344 C 2.0625 -12.277344 0.550781 -10.921875 0.550781 -9.246094 L 0.550781 -0.339844 C 0.550781 -0.15625 0.644531 0 0.777344 0 L 2.621094 0 C 2.820312 0 2.882812 -0.148438 2.882812 -0.339844 L 2.882812 -9.117188 C 2.882812 -9.664062 3.222656 -10.164062 3.816406 -10.164062 C 4.402344 -10.164062 4.742188 -9.664062 4.742188 -9.117188 L 4.742188 -0.347656 C 4.742188 -0.164062 4.847656 0 5.019531 0 Z M 6.792969 0 "/></g></g></g><g fill="#ffffff" fill-opacity="1"><g transform="translate(184.404894, 181.56818)"><g><path d="M 2.953125 -11.742188 C 2.953125 -11.953125 2.863281 -12.085938 2.664062 -12.085938 L 0.917969 -12.085938 C 0.734375 -12.085938 0.628906 -11.953125 0.628906 -11.742188 L 0.628906 -0.332031 C 0.628906 -0.121094 0.714844 0 0.917969 0 L 2.664062 0 C 2.863281 0 2.953125 -0.121094 2.953125 -0.332031 Z M 2.953125 -11.742188 "/></g></g></g><g fill="#ffffff" fill-opacity="1"><g transform="translate(197.205164, 181.56818)"><g><path d="M 5.824219 -9.960938 C 5.972656 -9.960938 6.078125 -10.066406 6.078125 -10.277344 L 6.078125 -11.769531 C 6.078125 -11.980469 5.972656 -12.085938 5.824219 -12.085938 L 0.246094 -12.085938 C 0.0976562 -12.085938 -0.0078125 -11.972656 -0.0078125 -11.761719 L -0.0078125 -10.277344 C -0.0078125 -10.066406 0.0976562 -9.960938 0.246094 -9.960938 L 1.867188 -9.960938 L 1.867188 -0.304688 C 1.867188 -0.105469 1.972656 0 2.121094 0 L 3.945312 0 C 4.085938 0 4.199219 -0.105469 4.199219 -0.304688 L 4.199219 -9.960938 Z M 5.824219 -9.960938 "/></g></g></g><g fill="#ffffff" fill-opacity="1"><g transform="translate(212.476089, 181.56818)"><g><path d="M 4.742188 -2.96875 C 4.742188 -2.417969 4.402344 -1.914062 3.816406 -1.914062 C 3.222656 -1.914062 2.882812 -2.417969 2.882812 -2.96875 L 2.882812 -11.742188 C 2.882812 -11.925781 2.828125 -12.085938 2.621094 -12.085938 L 0.777344 -12.085938 C 0.65625 -12.085938 0.550781 -11.925781 0.550781 -11.742188 L 0.550781 -2.835938 C 0.550781 -1.160156 2.0625 0.191406 3.808594 0.191406 C 5.554688 0.191406 7.074219 -1.160156 7.074219 -2.835938 L 7.074219 -11.734375 C 7.074219 -11.910156 6.984375 -12.085938 6.792969 -12.085938 L 5.019531 -12.085938 C 4.835938 -12.085938 4.742188 -11.917969 4.742188 -11.734375 Z M 4.742188 -2.96875 "/></g></g></g><g fill="#ffffff" fill-opacity="1"><g transform="translate(229.309724, 181.56818)"><g><path d="M 4.828125 -7.484375 C 4.828125 -6.890625 4.460938 -6.496094 3.761719 -6.496094 L 2.953125 -6.496094 L 2.953125 -9.960938 L 3.824219 -9.960938 C 4.425781 -9.960938 4.828125 -9.5625 4.828125 -8.933594 Z M 6.765625 -0.0078125 C 7.003906 -0.0078125 7.082031 -0.21875 7.082031 -0.375 L 7.082031 -1.945312 C 7.082031 -3.695312 6.695312 -4.792969 5.910156 -5.457031 C 6.617188 -5.929688 7.160156 -6.644531 7.160156 -7.683594 L 7.160156 -8.933594 C 7.160156 -10.671875 5.804688 -12.085938 4.007812 -12.085938 L 0.925781 -12.085938 C 0.742188 -12.085938 0.628906 -11.953125 0.628906 -11.742188 L 0.628906 -0.324219 C 0.628906 -0.121094 0.714844 0 0.917969 0 L 2.664062 0 C 2.855469 0 2.953125 -0.121094 2.953125 -0.324219 L 2.953125 -4.699219 C 4.148438 -4.617188 4.757812 -3.910156 4.757812 -2.226562 L 4.757812 -0.402344 C 4.757812 -0.140625 4.960938 -0.0078125 5.160156 -0.0078125 Z M 6.765625 -0.0078125 "/></g></g></g><g fill="#ffffff" fill-opacity="1"><g transform="translate(246.152089, 181.56818)"><g><path d="M 2.953125 -2.105469 L 2.953125 -5.0625 L 5.5 -5.0625 C 5.667969 -5.0625 5.78125 -5.152344 5.78125 -5.359375 L 5.78125 -6.855469 C 5.78125 -7.074219 5.648438 -7.160156 5.5 -7.160156 L 2.953125 -7.160156 L 2.953125 -9.960938 L 6.148438 -9.960938 C 6.304688 -9.960938 6.390625 -10.066406 6.390625 -10.277344 L 6.390625 -11.761719 C 6.390625 -11.980469 6.304688 -12.085938 6.148438 -12.085938 L 0.925781 -12.085938 C 0.742188 -12.085938 0.628906 -11.953125 0.628906 -11.742188 L 0.628906 -0.332031 C 0.628906 -0.121094 0.726562 0 0.925781 0 L 6.191406 0 C 6.332031 0 6.445312 -0.0976562 6.445312 -0.304688 L 6.445312 -1.808594 C 6.445312 -2.007812 6.332031 -2.105469 6.191406 -2.105469 Z M 2.953125 -2.105469 "/></g></g></g><g fill="#ffffff" fill-opacity="1"><g transform="translate(126.14101, 206.032274)"><g><path d="M 4.644531 -3.101562 C 4.644531 -2.628906 4.3125 -2.105469 3.695312 -2.105469 L 2.785156 -2.105469 L 2.785156 -5.257812 L 3.648438 -5.257812 C 4.171875 -5.257812 4.644531 -4.90625 4.644531 -4.164062 Z M 4.566406 -8.066406 C 4.566406 -7.316406 3.9375 -7.132812 3.554688 -7.132812 L 2.785156 -7.132812 L 2.785156 -9.960938 L 3.578125 -9.960938 C 4.148438 -9.960938 4.566406 -9.648438 4.566406 -8.921875 Z M 6.777344 -9.054688 C 6.777344 -10.792969 5.527344 -12.085938 3.703125 -12.085938 L 0.925781 -12.085938 C 0.734375 -12.085938 0.628906 -11.953125 0.628906 -11.742188 L 0.628906 -0.332031 C 0.628906 -0.121094 0.726562 0 0.925781 0 L 3.972656 0 C 5.527344 0 6.976562 -1.171875 6.976562 -2.871094 L 6.976562 -3.957031 C 6.976562 -5.464844 5.980469 -6.148438 5.492188 -6.277344 C 6.050781 -6.398438 6.777344 -7.210938 6.777344 -8.191406 Z M 6.777344 -9.054688 "/></g></g></g><g fill="#ffffff" fill-opacity="1"><g transform="translate(142.520677, 206.032274)"><g><path d="M 4.828125 -7.484375 C 4.828125 -6.890625 4.460938 -6.496094 3.761719 -6.496094 L 2.953125 -6.496094 L 2.953125 -9.960938 L 3.824219 -9.960938 C 4.425781 -9.960938 4.828125 -9.5625 4.828125 -8.933594 Z M 6.765625 -0.0078125 C 7.003906 -0.0078125 7.082031 -0.21875 7.082031 -0.375 L 7.082031 -1.945312 C 7.082031 -3.695312 6.695312 -4.792969 5.910156 -5.457031 C 6.617188 -5.929688 7.160156 -6.644531 7.160156 -7.683594 L 7.160156 -8.933594 C 7.160156 -10.671875 5.804688 -12.085938 4.007812 -12.085938 L 0.925781 -12.085938 C 0.742188 -12.085938 0.628906 -11.953125 0.628906 -11.742188 L 0.628906 -0.324219 C 0.628906 -0.121094 0.714844 0 0.917969 0 L 2.664062 0 C 2.855469 0 2.953125 -0.121094 2.953125 -0.324219 L 2.953125 -4.699219 C 4.148438 -4.617188 4.757812 -3.910156 4.757812 -2.226562 L 4.757812 -0.402344 C 4.757812 -0.140625 4.960938 -0.0078125 5.160156 -0.0078125 Z M 6.765625 -0.0078125 "/></g></g></g><g fill="#ffffff" fill-opacity="1"><g transform="translate(159.363045, 206.032274)"><g><path d="M 2.953125 -11.742188 C 2.953125 -11.953125 2.863281 -12.085938 2.664062 -12.085938 L 0.917969 -12.085938 C 0.734375 -12.085938 0.628906 -11.953125 0.628906 -11.742188 L 0.628906 -0.332031 C 0.628906 -0.121094 0.714844 0 0.917969 0 L 2.664062 0 C 2.863281 0 2.953125 -0.121094 2.953125 -0.332031 Z M 2.953125 -11.742188 "/></g></g></g><g fill="#ffffff" fill-opacity="1"><g transform="translate(172.163319, 206.032274)"><g><path d="M 4.390625 -8.582031 C 4.390625 -8.339844 4.425781 -8.25 4.644531 -8.25 L 6.207031 -8.25 C 6.488281 -8.25 6.546875 -8.339844 6.546875 -8.582031 L 6.546875 -9.082031 C 6.546875 -11.011719 5.257812 -12.269531 3.449219 -12.269531 C 2.226562 -12.269531 0.347656 -11.402344 0.347656 -9.132812 C 0.347656 -7.132812 1.171875 -6.558594 2.996094 -5.074219 C 4.070312 -4.199219 4.523438 -3.808594 4.523438 -2.960938 C 4.523438 -2.324219 4.078125 -1.921875 3.527344 -1.921875 C 3.082031 -1.921875 2.53125 -2.199219 2.53125 -3.074219 L 2.53125 -3.464844 C 2.53125 -3.726562 2.480469 -3.824219 2.234375 -3.824219 L 0.644531 -3.824219 C 0.402344 -3.824219 0.347656 -3.703125 0.347656 -3.40625 L 0.347656 -2.941406 C 0.347656 -1.300781 1.40625 0.191406 3.511719 0.191406 C 5.441406 0.191406 6.730469 -1.203125 6.730469 -2.835938 C 6.730469 -5.046875 5.429688 -6 3.796875 -7.265625 C 3.019531 -7.867188 2.507812 -8.242188 2.507812 -9.070312 C 2.507812 -9.867188 3.011719 -10.171875 3.449219 -10.171875 C 4.078125 -10.171875 4.390625 -9.675781 4.390625 -9.070312 Z M 4.390625 -8.582031 "/></g></g></g><g fill="#ffffff" fill-opacity="1"><g transform="translate(188.359651, 206.032274)"><g><path d="M 4.644531 -3.101562 C 4.644531 -2.628906 4.3125 -2.105469 3.695312 -2.105469 L 2.785156 -2.105469 L 2.785156 -5.257812 L 3.648438 -5.257812 C 4.171875 -5.257812 4.644531 -4.90625 4.644531 -4.164062 Z M 4.566406 -8.066406 C 4.566406 -7.316406 3.9375 -7.132812 3.554688 -7.132812 L 2.785156 -7.132812 L 2.785156 -9.960938 L 3.578125 -9.960938 C 4.148438 -9.960938 4.566406 -9.648438 4.566406 -8.921875 Z M 6.777344 -9.054688 C 6.777344 -10.792969 5.527344 -12.085938 3.703125 -12.085938 L 0.925781 -12.085938 C 0.734375 -12.085938 0.628906 -11.953125 0.628906 -11.742188 L 0.628906 -0.332031 C 0.628906 -0.121094 0.726562 0 0.925781 0 L 3.972656 0 C 5.527344 0 6.976562 -1.171875 6.976562 -2.871094 L 6.976562 -3.957031 C 6.976562 -5.464844 5.980469 -6.148438 5.492188 -6.277344 C 6.050781 -6.398438 6.777344 -7.210938 6.777344 -8.191406 Z M 6.777344 -9.054688 "/></g></g></g><g fill="#ffffff" fill-opacity="1"><g transform="translate(204.739314, 206.032274)"><g><path d="M 2.882812 -9.117188 C 2.882812 -9.664062 3.222656 -10.164062 3.816406 -10.164062 C 4.402344 -10.164062 4.742188 -9.664062 4.742188 -9.117188 L 4.742188 -4.914062 L 2.882812 -4.914062 Z M 7.074219 -9.246094 C 7.074219 -10.921875 5.554688 -12.277344 3.808594 -12.277344 C 2.0625 -12.277344 0.550781 -10.921875 0.550781 -9.246094 L 0.550781 -0.339844 C 0.550781 -0.15625 0.644531 0 0.777344 0 L 2.621094 0 C 2.828125 0 2.882812 -0.148438 2.882812 -0.339844 L 2.882812 -2.882812 L 4.742188 -2.882812 L 4.742188 -0.347656 C 4.742188 -0.164062 4.847656 0 5.019531 0 L 6.792969 0 C 6.992188 0 7.074219 -0.175781 7.074219 -0.347656 Z M 7.074219 -9.246094 "/></g></g></g><g fill="#ffffff" fill-opacity="1"><g transform="translate(221.572949, 206.032274)"><g><path d="M 6.792969 0 C 6.984375 0 7.074219 -0.175781 7.074219 -0.347656 L 7.074219 -9.246094 C 7.074219 -10.921875 5.554688 -12.277344 3.808594 -12.277344 C 2.0625 -12.277344 0.550781 -10.921875 0.550781 -9.246094 L 0.550781 -0.339844 C 0.550781 -0.15625 0.644531 0 0.777344 0 L 2.621094 0 C 2.820312 0 2.882812 -0.148438 2.882812 -0.339844 L 2.882812 -9.117188 C 2.882812 -9.664062 3.222656 -10.164062 3.816406 -10.164062 C 4.402344 -10.164062 4.742188 -9.664062 4.742188 -9.117188 L 4.742188 -0.347656 C 4.742188 -0.164062 4.847656 0 5.019531 0 Z M 6.792969 0 "/></g></g></g><g fill="#ffffff" fill-opacity="1"><g transform="translate(238.406584, 206.032274)"><g><path d="M 2.953125 -2.105469 L 2.953125 -5.0625 L 5.5 -5.0625 C 5.667969 -5.0625 5.78125 -5.152344 5.78125 -5.359375 L 5.78125 -6.855469 C 5.78125 -7.074219 5.648438 -7.160156 5.5 -7.160156 L 2.953125 -7.160156 L 2.953125 -9.960938 L 6.148438 -9.960938 C 6.304688 -9.960938 6.390625 -10.066406 6.390625 -10.277344 L 6.390625 -11.761719 C 6.390625 -11.980469 6.304688 -12.085938 6.148438 -12.085938 L 0.925781 -12.085938 C 0.742188 -12.085938 0.628906 -11.953125 0.628906 -11.742188 L 0.628906 -0.332031 C 0.628906 -0.121094 0.726562 0 0.925781 0 L 6.191406 0 C 6.332031 0 6.445312 -0.0976562 6.445312 -0.304688 L 6.445312 -1.808594 C 6.445312 -2.007812 6.332031 -2.105469 6.191406 -2.105469 Z M 2.953125 -2.105469 "/></g></g></g><path stroke-linecap="butt" transform="matrix(1.500563, 0, 0, 1.5, 91.887903, 168.092773)" fill="none" stroke-linejoin="miter" d="M -0.000789381 0.000651359 L 124.954948 0.000651359 " stroke="#ffffff" stroke-width="1" stroke-opacity="1" stroke-miterlimit="4"/><path stroke-linecap="butt" transform="matrix(1.500563, 0, 0, 1.5, 91.887903, 207.657217)" fill="none" stroke-linejoin="miter" d="M -0.000789381 -0.000644509 L 124.954948 -0.000644509 " stroke="#ffffff" stroke-width="1" stroke-opacity="1" stroke-miterlimit="4"/></svg>